<svg id="Camada_1" data-name="Camada 1" xmlns="http://www.w3.org/2000/svg" viewBox="0 0 1121.58 695.18"><defs><style>.cls-1{fill:#017158;}</style></defs><path class="cls-1" d="M5.71,745.64c40.7-12.32,92-19.25,155.55-19.88-30.4-9.43-73.27-15.17-127.48-17.55C18,696.19,7.87,682.08,10.39,662.6c54.6-7.27,113.91-10.35,174.26-4.68,68,5.15,136.22,22.44,204.67,49.12a642.47,642.47,0,0,1,178.93,98.24c40.36-38.68,102.92-68.43,173.1-94.73,35.29-17.64,80.62-30.79,129.81-42.1,93.41-14.54,178.7-19.15,252.62-5.85-1.46,19.07-8.17,33.54-21,44.44-58.27,3.15-106.54,8.46-126.31,19.89,49.45-3,99.87,4.22,150.87,17.54-8.44,46.16-35.83,83.42-70.26,118.71-165.38-59.31-328.49-59.42-489.36-1.84-167.15-61-330.67-53.86-490,1.84C43.57,832.83,21.2,792.24,5.71,745.64Zm494.13-.59C385.27,649.12,252.74,586.56,41.38,584.83c-3.59,20.1-1.22,37.45,8.19,53.8C219.07,619.23,364.44,669.43,499.84,745.05ZM1083,638.63c9.41-16.35,11.78-33.7,8.18-53.8-211.36,1.73-343.89,64.29-458.45,160.22C768.14,669.43,913.5,619.23,1083,638.63Zm-408.91,55c131.55-80,258.95-128.53,380.1-129.81,11.8-17.16,12.26-33.19,0-48C907.8,530.19,785.5,599.48,674.1,693.59ZM79.64,515.82c-12.26,14.77-11.8,30.8,0,48,121.15,1.28,248.55,49.86,380.1,129.81C348.34,599.48,226,530.19,79.64,515.82Zm287.89-41c4.52,54.48,20.52,106.05,59.51,151.78a3,3,0,0,0,.65.59c58,40.71,104.9,79.9,137.81,117.2a3.41,3.41,0,0,0,4.72.39L712.69,628.1C750,596.31,755.38,603.56,777.1,541a3.41,3.41,0,0,0-5.6-3.56l-27,26.34a3.41,3.41,0,0,1-5.61-3.54c31.94-92.81,17.82-173.27-47-220.85a4.08,4.08,0,0,0-.57-.34c-17.33-8-34.19-23.48-40.43-31.17a4.28,4.28,0,0,1-.37-.57c-10.79-20.16-12.32-35.9-7.34-54.81a3.41,3.41,0,0,0-5.37-3.6c-22.24,16.76-33.37,40-17.75,77.7a3.41,3.41,0,0,1-2.8,4.7c-3.12.31-7.32-.45-12.72-2.4a3.54,3.54,0,0,1-1.14-.67c-34.35-30.17-44.65-80-23.09-155.88a3.42,3.42,0,0,0-5.11-3.84C457.13,243,386.54,343.26,402,493.37a3.41,3.41,0,0,1-5.36,3.15,87.29,87.29,0,0,1-22.78-23.81A3.41,3.41,0,0,0,367.53,474.81Z" transform="translate(-5.71 -168)"/></svg>