<svg width="286" height="277" viewBox="0 0 286 277" fill="none" xmlns="http://www.w3.org/2000/svg">
<path d="M0 146.796C10.3783 143.667 23.4468 141.904 39.6645 141.744C31.9126 139.347 20.981 137.891 7.15771 137.286C3.13389 134.232 0.550789 130.646 1.19338 125.695C15.1161 123.848 30.2424 123.065 45.6288 124.506C62.9634 125.815 80.3643 130.206 97.8187 136.989C114.597 142.925 130.226 151.66 143.448 161.954C153.739 152.125 169.689 144.564 187.585 137.881C196.583 133.398 208.145 130.056 220.688 127.182C244.507 123.487 266.253 122.316 285.105 125.695C284.733 130.539 283.022 134.219 279.737 136.989C264.879 137.789 252.57 139.136 247.529 142.041C260.138 141.289 272.995 143.113 286 146.498C283.848 158.229 276.863 167.698 268.084 176.666C225.91 161.593 184.321 161.565 143.3 176.201C100.677 160.694 58.9804 162.511 18.3444 176.666C9.65922 168.953 3.95497 158.638 0.00254995 146.796H0ZM126.001 146.646C96.7885 122.267 62.9914 106.369 9.09568 105.927C8.18024 111.035 8.78458 115.444 11.1841 119.599C54.4058 114.671 91.4744 127.429 126.001 146.646ZM274.706 119.601C277.106 115.446 277.71 111.037 276.795 105.929C222.899 106.372 189.104 122.27 159.89 146.648C194.416 127.431 231.485 114.674 274.706 119.601ZM170.436 133.568C203.981 113.251 236.467 100.903 267.36 100.578C270.369 96.2192 270.489 92.1456 267.36 88.3921C230.029 92.044 198.843 109.65 170.436 133.568ZM18.8518 88.3921C15.723 92.1456 15.8428 96.2192 18.8518 100.578C49.7445 100.903 82.2308 113.251 115.775 133.568C87.369 109.65 56.1831 92.044 18.8518 88.3921ZM92.2623 77.9704C93.4149 91.8152 97.4974 104.918 107.437 116.542C107.486 116.598 107.542 116.649 107.603 116.692C122.403 127.037 134.354 136.996 142.744 146.475C143.055 146.826 143.583 146.869 143.947 146.574L180.276 116.926C189.78 108.847 191.162 110.689 196.701 94.7987C197.002 93.9347 195.931 93.2536 195.273 93.8914L188.388 100.585C187.733 101.22 186.659 100.55 186.957 99.6881C195.102 76.1 191.504 55.6555 174.98 43.5642C174.934 43.5311 174.886 43.5006 174.832 43.4778C170.413 41.4346 166.114 37.5083 164.525 35.5541C164.49 35.5083 164.459 35.4626 164.431 35.4118C161.68 30.2886 161.29 26.2861 162.559 21.4831C162.771 20.68 161.856 20.0701 161.19 20.5682C155.519 24.8274 152.681 30.7257 156.664 40.3139C156.886 40.8501 156.531 41.4524 155.952 41.5083C155.157 41.5871 154.083 41.3939 152.706 40.8984C152.602 40.8603 152.502 40.8018 152.418 40.7281C143.659 33.0611 141.03 20.398 146.53 1.11228C146.75 0.344818 145.906 -0.287958 145.227 0.136434C115.112 19.0511 97.1124 44.5375 101.044 82.6845C101.121 83.424 100.284 83.917 99.6802 83.4824C97.2577 81.7442 95.3376 79.7188 93.8714 77.4342C93.3792 76.6667 92.1909 77.0606 92.2674 77.9679L92.2623 77.9704ZM110.857 254.004H115.628V255.239H112.364V257.508H115.398V258.733H112.364V262.225H110.857V254.004ZM121.704 258.578H118.596V260.99H122.071V262.225H117.086V254.004H121.888V255.239H118.593V257.353H121.702V258.578H121.704ZM123.39 254.116C124.06 254.007 124.902 253.938 125.794 253.938C127.342 253.938 128.398 254.258 129.158 254.888C129.961 255.539 130.45 256.52 130.45 257.915C130.45 259.389 129.946 260.479 129.165 261.186C128.337 261.928 127.031 262.304 125.43 262.304C124.552 262.304 123.887 262.258 123.392 262.197V254.116H123.39ZM124.897 261.081C125.108 261.117 125.43 261.122 125.736 261.122C127.691 261.132 128.857 260.05 128.857 257.968C128.864 256.154 127.816 255.11 125.924 255.11C125.453 255.11 125.116 255.153 124.897 255.198V261.084V261.081ZM136.366 258.578H133.258V260.99H136.733V262.225H131.748V254.004H136.55V255.239H133.255V257.353H136.364V258.578H136.366ZM138.054 254.116C138.628 254.012 139.464 253.938 140.339 253.938C141.522 253.938 142.328 254.136 142.884 254.601C143.338 254.977 143.595 255.547 143.595 256.253C143.595 257.313 142.874 258.035 142.093 258.306V258.342C142.69 258.568 143.04 259.135 143.244 259.933C143.506 260.962 143.731 261.905 143.896 262.225H142.348C142.221 261.986 142.025 261.308 141.793 260.286C141.555 259.214 141.165 258.868 140.309 258.848H139.549V262.228H138.052V254.118L138.054 254.116ZM139.549 257.747H140.441C141.464 257.747 142.093 257.211 142.093 256.393C142.093 255.498 141.461 255.079 140.487 255.074C140.008 255.074 139.704 255.112 139.551 255.15V257.747H139.549ZM146.757 259.902L146.054 262.228H144.496L147.142 254.007H149.063L151.743 262.228H150.123L149.376 259.902H146.755H146.757ZM149.129 258.766L148.479 256.741C148.32 256.233 148.183 255.671 148.06 255.196H148.032C147.912 255.679 147.785 256.248 147.64 256.736L147.002 258.766H149.129ZM158.553 261.984C158.196 262.162 157.411 262.355 156.411 262.355C153.795 262.355 152.199 260.716 152.199 258.212C152.199 255.509 154.094 253.877 156.615 253.877C157.607 253.877 158.309 254.078 158.612 254.24L158.286 255.437C157.901 255.262 157.352 255.115 156.677 255.115C154.996 255.115 153.785 256.162 153.785 258.139C153.785 259.951 154.846 261.099 156.659 261.099C157.268 261.099 157.906 260.98 158.304 260.802L158.553 261.986V261.984ZM156.595 262.169L156.258 262.802C156.723 262.901 157.136 263.221 157.136 263.757C157.136 264.545 156.434 264.822 155.766 264.822C155.42 264.822 155.05 264.746 154.797 264.599L155.009 263.94C155.19 264.037 155.448 264.108 155.695 264.108C155.942 264.108 156.167 264.009 156.167 263.775C156.167 263.493 155.838 263.351 155.208 263.282L155.754 262.167H156.598L156.595 262.169ZM161.567 259.902L160.864 262.228H159.306L161.953 254.007H163.873L166.553 262.228H164.933L164.186 259.902H161.565H161.567ZM161.356 253.506C161.33 252.604 161.685 252.093 162.248 252.093C162.549 252.093 162.766 252.202 163.003 252.337C163.205 252.454 163.393 252.566 163.564 252.566C163.76 252.566 163.855 252.462 163.893 252.063H164.61C164.63 253.01 164.314 253.43 163.707 253.43C163.409 253.43 163.174 253.331 162.934 253.204C162.712 253.082 162.559 252.977 162.389 252.977C162.218 252.977 162.113 253.168 162.083 253.506H161.353H161.356ZM163.939 258.766L163.289 256.741C163.131 256.233 162.993 255.671 162.87 255.196H162.842C162.723 255.679 162.595 256.248 162.45 256.736L161.812 258.766H163.939ZM174.766 258.035C174.766 260.787 173.091 262.362 170.819 262.362C168.547 262.362 167.012 260.589 167.012 258.179C167.012 255.77 168.613 253.872 170.939 253.872C173.264 253.872 174.763 255.684 174.763 258.035H174.766ZM168.603 258.149C168.603 259.826 169.452 261.16 170.895 261.16C172.338 261.16 173.175 259.811 173.175 258.09C173.175 256.538 172.402 255.074 170.898 255.074C169.393 255.074 168.603 256.461 168.603 258.151V258.149ZM9.14923 268.642V276.863H7.6422V268.642H9.14923ZM17.4901 276.489C16.9572 276.68 15.9321 276.947 14.8331 276.947C13.4408 276.947 12.38 276.598 11.5997 275.851C10.8628 275.152 10.4395 274.072 10.4421 272.832C10.4497 270.225 12.3112 268.56 15.0396 268.56C16.0545 268.56 16.845 268.766 17.23 268.947L16.896 270.156C16.4472 269.958 15.8938 269.806 15.0192 269.806C13.2623 269.806 12.023 270.843 12.023 272.754C12.023 274.665 13.1781 275.727 14.8866 275.727C15.4323 275.727 15.8326 275.656 16.0264 275.564V273.511H14.573V272.332H17.4876V276.489H17.4901ZM19.0226 268.756C19.5964 268.652 20.4328 268.578 21.3074 268.578C22.4906 268.578 23.2964 268.776 23.8522 269.241C24.3061 269.618 24.5637 270.187 24.5637 270.893C24.5637 271.953 23.842 272.675 23.0618 272.947V272.982C23.6584 273.208 24.0078 273.775 24.2118 274.573C24.4744 275.602 24.6988 276.545 24.8646 276.865H23.3168C23.1893 276.626 22.9904 275.948 22.7609 274.926C22.5237 273.854 22.1336 273.508 21.2768 273.488H20.5169V276.868H19.0201V268.759L19.0226 268.756ZM20.5195 272.385H21.4119C22.4345 272.385 23.0643 271.849 23.0643 271.031C23.0643 270.136 22.4319 269.717 21.4578 269.712C20.9785 269.712 20.675 269.75 20.522 269.788V272.385H20.5195ZM30.6045 273.216H27.4961V275.628H30.9717V276.863H25.9866V268.642H30.7881V269.877H27.4936V271.991H30.602V273.216H30.6045ZM34.1795 268.642H35.6866V273.976C35.6866 276.245 34.585 277 32.9505 277C32.5323 277 32.007 276.924 31.6857 276.807L31.8718 275.595C32.1115 275.676 32.4405 275.745 32.8026 275.745C33.6594 275.745 34.1821 275.358 34.1821 273.93V268.647L34.1795 268.642ZM38.9888 274.54L38.285 276.865H36.7269L39.3738 268.644H41.2939L43.9739 276.865H42.3547L41.6076 274.54H38.9862H38.9888ZM41.3602 273.404L40.71 271.379C40.5519 270.87 40.4142 270.309 40.2918 269.834H40.2637C40.1439 270.316 40.0164 270.886 39.871 271.374L39.2336 273.404H41.3602ZM53.5745 276.621C53.2175 276.799 52.4321 276.992 51.4325 276.992C48.8163 276.992 47.22 275.353 47.22 272.85C47.22 270.146 49.1146 268.515 51.6365 268.515C52.6284 268.515 53.3297 268.715 53.6357 268.878L53.3093 270.075C52.9242 269.9 52.376 269.752 51.7003 269.752C50.0198 269.752 48.8086 270.799 48.8086 272.776C48.8086 274.588 49.8694 275.737 51.6824 275.737C52.2919 275.737 52.9293 275.618 53.3271 275.44L53.577 276.624L53.5745 276.621ZM54.8469 268.756C55.4206 268.652 56.257 268.578 57.1317 268.578C58.3148 268.578 59.1206 268.776 59.6765 269.241C60.1304 269.618 60.388 270.187 60.388 270.893C60.388 271.953 59.6663 272.675 58.886 272.947V272.982C59.4827 273.208 59.8321 273.775 60.0361 274.573C60.2987 275.602 60.5231 276.545 60.6888 276.865H59.141C59.0135 276.626 58.8146 275.948 58.5851 274.926C58.348 273.854 57.9578 273.508 57.1011 273.488H56.3412V276.868H54.8444V268.759L54.8469 268.756ZM56.3437 272.385H57.2362C58.2587 272.385 58.8886 271.849 58.8886 271.031C58.8886 270.136 58.2562 269.717 57.2821 269.712C56.8027 269.712 56.4993 269.75 56.3463 269.788V272.385H56.3437ZM63.3204 268.642V276.863H61.8134V268.642H63.3204ZM65.0161 275.226C65.5032 275.506 66.2426 275.75 67.0102 275.75C67.9715 275.75 68.5095 275.3 68.5095 274.626C68.5095 274.006 68.0914 273.64 67.0484 273.262C65.6867 272.779 64.8147 272.052 64.8147 270.873C64.8147 269.526 65.9443 268.512 67.7344 268.512C68.6294 268.512 69.2822 268.703 69.7131 268.919L69.3536 270.131C69.0552 269.976 68.4789 269.74 67.7063 269.74C66.7501 269.74 66.3446 270.248 66.3446 270.731C66.3446 271.361 66.8215 271.658 67.923 272.078C69.3561 272.624 70.0446 273.341 70.0446 274.522C70.0446 275.844 69.045 276.992 66.9158 276.992C66.0437 276.992 65.136 276.746 64.6846 276.469L65.0187 275.226H65.0161ZM72.9796 269.905H70.6235V268.642H76.8657V269.905H74.4866V276.865H72.9796V269.905ZM78.5819 274.54L77.8781 276.865H76.32L78.9669 268.644H80.887L83.567 276.865H81.9478L81.2007 274.54H78.5793H78.5819ZM78.3702 268.144C78.3447 267.242 78.6992 266.731 79.2627 266.731C79.5636 266.731 79.7803 266.84 80.0175 266.975C80.2189 267.092 80.4076 267.203 80.5785 267.203C80.7748 267.203 80.8692 267.099 80.9074 266.7H81.6239C81.6443 267.648 81.3281 268.067 80.7213 268.067C80.4229 268.067 80.1883 267.968 79.9486 267.841C79.7268 267.719 79.5738 267.615 79.4029 267.615C79.2321 267.615 79.1275 267.806 79.0969 268.144H78.3677H78.3702ZM80.9559 273.404L80.3056 271.379C80.1475 270.87 80.0098 270.309 79.8874 269.834H79.8594C79.7395 270.316 79.612 270.886 79.4667 271.374L78.8292 273.404H80.9559ZM87.2466 268.756C87.8203 268.652 88.6567 268.578 89.5313 268.578C90.7145 268.578 91.5203 268.776 92.0762 269.241C92.5301 269.618 92.7876 270.187 92.7876 270.893C92.7876 271.953 92.066 272.675 91.2857 272.947V272.982C91.8824 273.208 92.2317 273.775 92.4357 274.573C92.6984 275.602 92.9228 276.545 93.0885 276.865H91.5407C91.4132 276.626 91.2169 275.948 90.9848 274.926C90.7477 273.854 90.3575 273.508 89.5007 273.488H88.7409V276.868H87.244V268.759L87.2466 268.756ZM88.7409 272.385H89.6333C90.6559 272.385 91.2857 271.849 91.2857 271.031C91.2857 270.136 90.6533 269.717 89.6792 269.712C89.1999 269.712 88.8964 269.75 88.7434 269.788V272.385H88.7409ZM98.8285 273.216H95.7201V275.628H99.1957V276.863H94.2105V268.642H99.0121V269.877H95.7175V271.991H98.8259V273.216H98.8285ZM100.514 268.642H105.285V269.877H102.021V272.146H105.055V273.371H102.021V276.863H100.514V268.642ZM114.07 272.672C114.07 275.424 112.394 277 110.122 277C107.85 277 106.315 275.226 106.315 272.817C106.315 270.408 107.916 268.51 110.242 268.51C112.568 268.51 114.067 270.322 114.067 272.672H114.07ZM107.906 272.787C107.906 274.464 108.755 275.798 110.199 275.798C111.642 275.798 112.478 274.449 112.478 272.728C112.478 271.175 111.706 269.712 110.201 269.712C108.697 269.712 107.906 271.099 107.906 272.789V272.787ZM115.362 268.756C115.936 268.652 116.772 268.578 117.647 268.578C118.83 268.578 119.636 268.776 120.192 269.241C120.646 269.618 120.903 270.187 120.903 270.893C120.903 271.953 120.182 272.675 119.401 272.947V272.982C119.998 273.208 120.348 273.775 120.552 274.573C120.814 275.602 121.039 276.545 121.204 276.865H119.656C119.529 276.626 119.333 275.948 119.101 274.926C118.863 273.854 118.473 273.508 117.617 273.488H116.857V276.868H115.36V268.759L115.362 268.756ZM116.857 272.385H117.749C118.772 272.385 119.401 271.849 119.401 271.031C119.401 270.136 118.769 269.717 117.795 269.712C117.316 269.712 117.012 269.75 116.859 269.788V272.385H116.857ZM129.293 273.511C129.242 272.449 129.188 271.173 129.193 270.052H129.16C128.887 271.061 128.543 272.169 128.186 273.211L126.975 276.769H125.815L124.721 273.259C124.397 272.205 124.104 271.086 123.887 270.052H123.859C123.823 271.13 123.775 272.444 123.711 273.562L123.527 276.865H122.122L122.671 268.644H124.652L125.728 271.945C126.024 272.916 126.289 273.892 126.485 274.809H126.521C126.743 273.912 127.026 272.906 127.345 271.94L128.49 268.644H130.445L130.92 276.865H129.451L129.29 273.511H129.293ZM134.028 274.54L133.324 276.865H131.766L134.413 268.644H136.333L139.013 276.865H137.394L136.647 274.54H134.025H134.028ZM136.399 273.404L135.749 271.379C135.591 270.87 135.453 270.309 135.331 269.834H135.303C135.183 270.316 135.056 270.886 134.91 271.374L134.273 273.404H136.399ZM140.158 268.756C140.829 268.647 141.67 268.578 142.563 268.578C144.111 268.578 145.166 268.898 145.926 269.529C146.729 270.179 147.219 271.16 147.219 272.555C147.219 274.029 146.714 275.119 145.934 275.826C145.105 276.568 143.799 276.944 142.198 276.944C141.321 276.944 140.655 276.898 140.161 276.837V268.756H140.158ZM141.665 275.719C141.877 275.755 142.198 275.76 142.504 275.76C144.46 275.77 145.625 274.687 145.625 272.606C145.633 270.792 144.585 269.747 142.693 269.747C142.221 269.747 141.884 269.79 141.665 269.836V275.722V275.719ZM149.988 274.54L149.284 276.865H147.726L150.373 268.644H152.293L154.973 276.865H153.354L152.607 274.54H149.986H149.988ZM152.36 273.404L151.709 271.379C151.551 270.87 151.414 270.309 151.291 269.834H151.263C151.143 270.316 151.016 270.886 150.87 271.374L150.233 273.404H152.36ZM160.305 274.54L159.601 276.865H158.043L160.69 268.644H162.61L165.29 276.865H163.671L162.924 274.54H160.303H160.305ZM162.679 273.404L162.029 271.379C161.871 270.87 161.733 270.309 161.611 269.834H161.583C161.463 270.316 161.335 270.886 161.19 271.374L160.553 273.404H162.679ZM167.629 276.865L164.956 268.644H166.601L167.728 272.383C168.047 273.419 168.322 274.382 168.534 275.376H168.562C168.781 274.405 169.08 273.404 169.401 272.403L170.604 268.642H172.208L169.358 276.863H167.631L167.629 276.865ZM174.603 268.642V276.863H173.096V268.642H174.603ZM178.216 276.865L175.544 268.644H177.188L178.316 272.383C178.634 273.419 178.91 274.382 179.121 275.376H179.149C179.369 274.405 179.667 273.404 179.988 272.403L181.192 268.642H182.796L179.945 276.863H178.219L178.216 276.865ZM184.662 274.54L183.959 276.865H182.401L185.047 268.644H186.968L189.648 276.865H188.028L187.281 274.54H184.66H184.662ZM187.036 273.404L186.386 271.379C186.228 270.87 186.09 270.309 185.968 269.834H185.94C185.82 270.316 185.693 270.886 185.547 271.374L184.91 273.404H187.036ZM190.792 268.642H192.299V275.605H195.693V276.865H190.792V268.644V268.642ZM198.335 268.642V276.863H196.828V268.642H198.335ZM200.031 275.226C200.518 275.506 201.257 275.75 202.025 275.75C202.986 275.75 203.524 275.3 203.524 274.626C203.524 274.006 203.106 273.64 202.063 273.262C200.702 272.779 199.829 272.052 199.829 270.873C199.829 269.526 200.959 268.512 202.749 268.512C203.644 268.512 204.297 268.703 204.728 268.919L204.368 270.131C204.07 269.976 203.494 269.74 202.721 269.74C201.765 269.74 201.359 270.248 201.359 270.731C201.359 271.361 201.836 271.658 202.938 272.078C204.371 272.624 205.059 273.341 205.059 274.522C205.059 275.844 204.06 276.992 201.931 276.992C201.059 276.992 200.151 276.746 199.699 276.469L200.033 275.226H200.031ZM207.997 269.905H205.641V268.642H211.883V269.905H209.504V276.865H207.997V269.905ZM213.599 274.54L212.895 276.865H211.337L213.984 268.644H215.904L218.584 276.865H216.965L216.218 274.54H213.597H213.599ZM215.971 273.404L215.32 271.379C215.162 270.87 215.025 270.309 214.902 269.834H214.874C214.754 270.316 214.627 270.886 214.482 271.374L213.844 273.404H215.971ZM222.261 268.756C222.932 268.647 223.774 268.578 224.666 268.578C226.214 268.578 227.27 268.898 228.029 269.529C228.833 270.179 229.322 271.16 229.322 272.555C229.322 274.029 228.817 275.119 228.037 275.826C227.208 276.568 225.903 276.944 224.301 276.944C223.424 276.944 222.759 276.898 222.264 276.837V268.756H222.261ZM223.768 275.719C223.98 275.755 224.301 275.76 224.607 275.76C226.563 275.77 227.729 274.687 227.729 272.606C227.736 270.792 226.688 269.747 224.796 269.747C224.324 269.747 223.988 269.79 223.768 269.836V275.722V275.719ZM237.946 272.672C237.946 275.424 236.271 277 233.999 277C231.727 277 230.192 275.226 230.192 272.817C230.192 270.408 231.793 268.51 234.119 268.51C236.444 268.51 237.944 270.322 237.944 272.672H237.946ZM231.785 272.787C231.785 274.464 232.635 275.798 234.078 275.798C235.521 275.798 236.358 274.449 236.358 272.728C236.358 271.175 235.585 269.712 234.08 269.712C232.576 269.712 231.785 271.099 231.785 272.789V272.787ZM241.771 268.756C242.253 268.657 243.125 268.578 243.972 268.578C245.078 268.578 245.769 268.721 246.333 269.099C246.843 269.412 247.185 269.94 247.185 270.647C247.185 271.402 246.713 272.093 245.813 272.418V272.449C246.685 272.67 247.483 273.353 247.483 274.484C247.483 275.213 247.167 275.783 246.692 276.182C246.103 276.687 245.14 276.942 243.627 276.942C242.789 276.942 242.164 276.886 241.774 276.835V268.754L241.771 268.756ZM243.268 272.001H244.041C245.086 272.001 245.667 271.511 245.667 270.815C245.667 270.042 245.081 269.686 244.13 269.686C243.684 269.686 243.431 269.717 243.268 269.752V271.999V272.001ZM243.268 275.773C243.464 275.808 243.719 275.816 244.066 275.816C245.03 275.816 245.897 275.455 245.897 274.441C245.897 273.485 245.053 273.094 244.018 273.092H243.268V275.773ZM248.822 268.756C249.395 268.652 250.232 268.578 251.106 268.578C252.29 268.578 253.095 268.776 253.651 269.241C254.105 269.618 254.363 270.187 254.363 270.893C254.363 271.953 253.641 272.675 252.861 272.947V272.982C253.458 273.208 253.807 273.775 254.011 274.573C254.273 275.602 254.498 276.545 254.664 276.865H253.116C252.988 276.626 252.792 275.948 252.56 274.926C252.323 273.854 251.933 273.508 251.076 273.488H250.316V276.868H248.819V268.759L248.822 268.756ZM250.319 272.385H251.211C252.234 272.385 252.863 271.849 252.863 271.031C252.863 270.136 252.231 269.717 251.257 269.712C250.778 269.712 250.474 269.75 250.321 269.788V272.385H250.319ZM257.525 274.54L256.821 276.865H255.263L257.91 268.644H259.83L262.51 276.865H260.891L260.143 274.54H257.522H257.525ZM259.899 273.404L259.248 271.379C259.09 270.87 258.953 270.309 258.83 269.834H258.802C258.682 270.316 258.555 270.886 258.41 271.374L257.772 273.404H259.899ZM263.627 275.226C264.114 275.506 264.853 275.75 265.621 275.75C266.582 275.75 267.12 275.3 267.12 274.626C267.12 274.006 266.702 273.64 265.659 273.262C264.297 272.779 263.425 272.052 263.425 270.873C263.425 269.526 264.555 268.512 266.345 268.512C267.24 268.512 267.893 268.703 268.324 268.919L267.964 270.131C267.666 269.976 267.09 269.74 266.317 269.74C265.361 269.74 264.955 270.248 264.955 270.731C264.955 271.361 265.432 271.658 266.534 272.078C267.967 272.624 268.655 273.341 268.655 274.522C268.655 275.844 267.656 276.992 265.526 276.992C264.654 276.992 263.747 276.746 263.295 276.469L263.629 275.226H263.627ZM271.516 268.642V276.863H270.009V268.642H271.516ZM273.24 268.642H274.747V275.605H278.141V276.865H273.24V268.644V268.642ZM105.514 205.933C104.048 217.433 108.363 226.657 119.917 230.94C127.74 233.839 135.693 233.379 143.613 231.27C146.207 230.579 146.538 229.748 145.63 227.044C144.628 227.588 143.677 228.208 142.647 228.647C137.618 230.792 132.365 230.965 127.13 229.857C122.783 228.937 119.131 226.688 116.622 222.741C116.339 222.449 116.109 222.22 115.972 221.949C111.275 212.592 111.191 203.247 116.959 194.414C119.998 189.758 124.675 186.81 130.55 187.265C133.77 187.517 136.935 188.632 140.094 189.474C141.418 189.827 142.66 190.48 144.133 191.075C144.32 189.857 144.404 188.879 144.633 187.936C144.911 186.785 144.516 186.145 143.376 185.934C140.413 185.385 137.468 184.599 134.479 184.35C129.028 183.893 123.808 185.095 118.759 187.395C110.966 191.263 106.598 197.484 105.52 205.933H105.514ZM54.0717 186.513C54.0666 200.922 54.0717 215.331 54.0794 229.74C54.0794 230.297 54.1431 230.853 54.1865 231.572C55.7776 231.572 57.2362 231.478 58.6769 231.598C60.1789 231.722 60.6123 231.201 60.6072 229.699C60.5537 215.55 60.5792 201.402 60.5715 187.253C60.5715 186.424 60.4797 185.598 60.2885 184.782C58.1975 184.775 56.2468 184.757 54.2553 184.854C54.1635 185.484 54.0717 186 54.0717 186.516V186.513ZM195.102 231.737C195.079 231.689 195.056 231.641 195 231.397C194.959 216.2 194.951 201.199 194.957 186.201C194.957 185.692 195.087 185.181 195.153 184.673C195.153 184.673 195.278 184.696 195.477 184.709C200.253 184.727 204.83 184.724 209.405 184.737C215.195 184.752 220.538 185.992 224.712 190.376C224.712 190.376 224.804 190.302 224.763 190.444C226.777 193.601 227.027 196.859 225.903 200.238C224.595 204.167 221.364 206.025 217.786 207.415C216.353 207.972 214.841 208.327 213.15 208.838C213.854 209.738 214.431 210.515 215.048 211.26C220.329 217.616 225.62 223.959 230.893 230.322C231.24 230.741 231.439 231.28 231.706 231.763C231.706 231.763 231.727 231.788 231.579 231.773C229.417 232.002 227.387 232.175 225.385 232.515C224.238 232.711 223.587 232.368 222.935 231.433C218.419 224.952 213.727 218.594 209.364 212.015C207.895 209.799 206.329 209.031 203.784 209.227C202.283 209.344 201.724 209.56 201.752 211.209C201.859 217.341 201.801 223.476 201.803 229.61C201.803 230.998 201.132 231.693 199.789 231.697C198.226 231.704 196.66 231.722 195.097 231.737M218.934 195.138C218.806 194.688 218.697 194.233 218.549 193.791C217.434 190.48 213.872 187.331 210.955 187.443C208.316 187.545 205.692 188.051 203.06 188.361C202.048 188.48 201.839 189.075 201.857 189.984C201.903 192.477 201.877 194.973 201.877 197.466C201.877 200.625 201.877 203.786 201.877 207.316C204.807 207.151 207.602 207.108 210.371 206.813C216.69 206.137 219.982 201.717 218.936 195.136L218.934 195.138Z" fill="#017158"/>
</svg>
